#!OML:ASF I:\Actors\actors\Patient Classification 2\Patient 1\Session 1\actor1.ASF
:FULLY-SPECIFIED
:DEGREES
565
root -0.451395 18.7726 5.8328 4.15194 -6.39742 -4.08799
lowerback 10.4482 -1.642 -2.30507
upperback 2.54649 -2.3677 1.623
thorax -3.03551 -1.16513 3.28739
lowerneck -11.1306 3.03777 4.32403
upperneck 30.897 2.70863 1.58248
head 12.0369 1.85669 0.197086
rclavicle -3.63776e-014 2.34566e-014
rhumerus -47.6838 -2.25763 -77.308
rradius 51.0784
rwrist 7.54149
rhand -4.87089 -43.1295
rfingers 7.12502
rthumb 20.9175 -72.0217
lclavicle -3.63776e-014 2.34566e-014
lhumerus 0.3907 -5.98792 68.5959
lradius 57.0591
lwrist -4.94209
lhand -7.84363 -24.1049
lfingers 7.12502
lthumb 18.0593 5.07667
rfemur 0 0 0
rtibia 0
rfoot 0 0
rtoes 0
lfemur -7.30209 -3.31702 -11.2827
ltibia 23.6995
lfoot -24.4968 14.5304
ltoes -54.1222
566
root -0.457653 18.7672 5.86363 4.0453 -6.36023 -4.06597
lowerback 10.2197 -1.62579 -2.02273
upperback 2.33257 -2.31371 1.59496
thorax -3.14882 -1.1352 3.08858
lowerneck -11.0382 2.94537 4.38921
upperneck 30.6357 2.60088 1.49457
head 11.9139 1.80429 0.133876
rclavicle -4.00551e-014 9.14409e-015
rhumerus -47.681 -2.63096 -77.2424
rradius 50.4424
rwrist 7.81397
rhand -4.77304 -43.053
rfingers 7.12502
rthumb 21.0115 -71.9348
lclavicle -4.00551e-014 9.14409e-015
lhumerus -2.25985 -7.00165 69.3076
lradius 59.1522
lwrist -2.45443
lhand -8.51877 -23.7983
lfingers 7.12502
lthumb 17.4096 5.44206
rfemur 0 0 0
rtibia 0
rfoot 0 0
rtoes 0
lfemur -7.07805 -3.28245 -11.3056
ltibia 23.6764
lfoot -24.5085 14.5068
ltoes -54.2571
567
root -0.462783 18.7596 5.90026 3.88839 -6.42591 -4.07317
lowerback 9.89641 -1.59188 -1.73612
upperback 2.19045 -2.23493 1.59803
thorax -3.13446 -1.09673 2.91156
lowerneck -11.1725 2.86447 4.27912
upperneck 30.5614 2.48841 1.5593
head 11.9066 1.75061 0.163417
rclavicle 4.23411e-014 -1.51076e-014
rhumerus -47.6621 -2.85905 -77.2188
rradius 49.9419
rwrist 8.05132
rhand -4.66678 -42.9349
rfingers 7.12502
rthumb 21.1135 -71.8053
lclavicle 4.23411e-014 -1.51076e-014
lhumerus -5.0652 -8.15543 70.0845
lradius 61.1981
lwrist -0.134183
lhand -9.27996 -23.5839
lfingers 7.12502
lthumb 16.6769 5.71967
rfemur 0 0 0
rtibia 0
rfoot 0 0
rtoes 0
lfemur -6.72966 -3.33976 -11.3288
ltibia 23.651
lfoot -24.6576 14.5112
ltoes -54.1921
568
root -0.467516 18.7524 5.939 3.74237 -6.53726 -4.10688
lowerback 9.47836 -1.54567 -1.46233
upperback 2.07715 -2.141 1.63872
thorax -3.03541 -1.05243 2.77552
lowerneck -11.3007 2.76166 4.17939
upperneck 30.4406 2.3676 1.54505
head 11.8805 1.68414 0.15979
rclavicle -3.69243e-014 6.36111e-015
rhumerus -47.7201 -3.0113 -77.1982
rradius 49.5978
rwrist 8.26188
rhand -4.53088 -42.8663
rfingers 7.12502
rthumb 21.2441 -71.7221
lclavicle -3.69243e-014 6.36111e-015
lhumerus -6.89934 -8.36192 71.4906
lradius 61.4205
lwrist 0.881643
lhand -9.80373 -24.2501
lfingers 7.12502
lthumb 16.1726 5.09525
rfemur 0 0 0
rtibia 0
rfoot 0 0
rtoes 0
lfemur -6.36465 -3.40363 -11.3335
ltibia 23.6218
lfoot -24.8644 14.5537
ltoes -54.1598
569
root -0.473229 18.7486 5.97251 3.70609 -6.49598 -4.14012
lowerback 9.03512 -1.52991 -1.20345
upperback 1.89684 -2.0897 1.70324
thorax -2.98689 -1.02776 2.67897
lowerneck -11.2982 2.63021 4.07958
upperneck 30.1409 2.2195 1.52157
head 11.7564 1.60239 0.145067
rclavicle 4.67144e-015 -5.56597e-015
rhumerus -47.8929 -3.18099 -77.1864
rradius 49.4074
rwrist 8.45026
rhand -4.40619 -42.7757
rfingers 7.12502
rthumb 21.3639 -71.618
lclavicle 4.67144e-015 -5.56597e-015
lhumerus -10.6988 -10.4592 72.2665
lradius 63.9896
lwrist 3.28248
lhand -10.7504 -23.8919
lfingers 7.12502
lthumb 15.261 5.52517
rfemur 0 0 0
rtibia 0
rfoot 0 0
rtoes 0
lfemur -6.18104 -3.45886 -11.3037
ltibia 23.5792
lfoot -24.9619 14.5859
ltoes -54.2857
